<svg width="830" height="1097" viewBox="0 0 830 1097" fill="none" xmlns="http://www.w3.org/2000/svg">
<g style="mix-blend-mode:color-dodge" opacity="0.75" clip-path="url(#clip0_109_30)" filter="url(#filter0_f_109_30)">
<path d="M202.202 442.417C111.246 331.811 284.72 77.1264 382.827 -36.3905C407.583 -40.8453 459.902 -31.487 471.133 41.5847C485.172 132.924 599.405 141.461 755.118 78.9548C910.832 16.4484 1220.29 -51.8052 1267.78 81.5107C1315.28 214.827 1199.68 298.024 1031.36 427.215C863.05 556.405 841.12 406.749 671.537 516.667C501.953 626.585 315.896 580.674 202.202 442.417Z" fill="#00A3FF"/>
<path d="M1230.55 147.069C1383.09 211.652 1248.27 382.787 1236.51 512.288C1178.26 486.067 1046.08 447.106 983.337 501.028C904.907 568.431 830.119 708.982 687.326 755.419C544.534 801.855 412.543 567.057 432.36 500.279C452.177 433.501 525.138 327.684 516.482 427.984C507.826 528.284 678.694 522.944 856.498 403.305C1034.3 283.666 1078.01 82.4855 1230.55 147.069Z" fill="#DB00FF"/>
<path d="M1217.31 134.963C1207.65 236.877 1058.18 350.737 896.59 459.322C877.494 452.413 837.452 421.132 830.046 351.278C820.789 263.959 702.12 186.188 526.969 184.457C351.817 182.726 326.796 156.701 385.845 -15.7799C444.894 -188.26 565.536 -317.018 579.236 -280.796C592.936 -244.575 812.055 -134.928 917.375 -66.4522C1022.7 2.0235 1226.97 33.0498 1217.31 134.963Z" fill="#FFD700"/>
</g>
<defs>
<filter id="filter0_f_109_30" x="-120" y="-273" width="1693" height="1490" filterUnits="userSpaceOnUse" color-interpolation-filters="sRGB">
<feFlood flood-opacity="0" result="BackgroundImageFix"/>
<feBlend mode="normal" in="SourceGraphic" in2="BackgroundImageFix" result="shape"/>
<feGaussianBlur stdDeviation="60" result="effect1_foregroundBlur_109_30"/>
</filter>
<clipPath id="clip0_109_30">
<rect width="1453" height="1250" fill="white" transform="translate(0 -153)"/>
</clipPath>
</defs>
</svg>
