<svg width="830" height="1013" viewBox="0 0 830 1013" fill="none" xmlns="http://www.w3.org/2000/svg">
<g opacity="0.75" filter="url(#filter0_f_109_26)">
<path d="M446.49 576.598C359.228 473.426 525.657 235.855 619.78 129.967C643.531 125.811 693.726 134.541 704.501 202.702C717.97 287.904 827.564 295.867 976.955 237.561C1126.35 179.255 1423.23 115.588 1468.8 239.945C1514.37 364.302 1403.46 441.909 1241.98 562.418C1080.5 682.927 1059.46 543.327 896.767 645.859C734.069 748.39 555.568 705.564 446.49 576.598Z" fill="#00A3FF"/>
<path d="M1181.41 120.292C1327.75 180.536 1198.41 340.17 1187.13 460.968C1131.24 436.51 1004.43 400.167 944.232 450.465C868.986 513.339 797.235 644.445 660.241 687.761C523.247 731.077 396.615 512.057 415.627 449.766C434.64 387.476 504.638 288.77 496.334 382.33C488.03 475.89 651.96 470.909 822.543 359.309C993.127 247.71 1035.07 60.0489 1181.41 120.292Z" fill="#DB00FF"/>
<path d="M1174.39 112.935C1165.12 208 1021.71 314.209 866.688 415.497C848.368 409.053 809.952 379.874 802.847 314.713C793.965 233.263 680.116 160.718 512.076 159.103C344.037 157.488 320.031 133.212 376.683 -27.6778C433.334 -188.568 549.078 -308.673 562.221 -274.885C575.365 -241.098 785.586 -138.819 886.63 -74.9449C987.674 -11.0708 1183.65 17.8705 1174.39 112.935Z" fill="#FFD700"/>
</g>
<defs>
<filter id="filter0_f_109_26" x="-135" y="-415.608" width="1749.11" height="1563.61" filterUnits="userSpaceOnUse" color-interpolation-filters="sRGB">
<feFlood flood-opacity="0" result="BackgroundImageFix"/>
<feBlend mode="normal" in="SourceGraphic" in2="BackgroundImageFix" result="shape"/>
<feGaussianBlur stdDeviation="67.5" result="effect1_foregroundBlur_109_26"/>
</filter>
</defs>
</svg>
